<?xml version="1.0" encoding="UTF-8" standalone="no"?>
<!-- Created with Inkscape (http://www.inkscape.org/) -->
<svg
   xmlns:dc="http://purl.org/dc/elements/1.1/"
   xmlns:cc="http://creativecommons.org/ns#"
   xmlns:rdf="http://www.w3.org/1999/02/22-rdf-syntax-ns#"
   xmlns:svg="http://www.w3.org/2000/svg"
   xmlns="http://www.w3.org/2000/svg"
   xmlns:sodipodi="http://sodipodi.sourceforge.net/DTD/sodipodi-0.dtd"
   xmlns:inkscape="http://www.inkscape.org/namespaces/inkscape"
   width="15"
   height="15"
   id="svg2"
   sodipodi:version="0.32"
   inkscape:version="0.46"
   version="1.0"
   sodipodi:docname="modern-15-skull.svg"
   inkscape:output_extension="org.inkscape.output.svg.inkscape">
  <defs
     id="defs4">
    <inkscape:perspective
       sodipodi:type="inkscape:persp3d"
       inkscape:vp_x="0 : 526.18109 : 1"
       inkscape:vp_y="0 : 1000 : 0"
       inkscape:vp_z="744.09448 : 526.18109 : 1"
       inkscape:persp3d-origin="372.04724 : 350.78739 : 1"
       id="perspective10" />
    <inkscape:perspective
       id="perspective2447"
       inkscape:persp3d-origin="372.04724 : 350.78739 : 1"
       inkscape:vp_z="744.09448 : 526.18109 : 1"
       inkscape:vp_y="0 : 1000 : 0"
       inkscape:vp_x="0 : 526.18109 : 1"
       sodipodi:type="inkscape:persp3d" />
  </defs>
  <sodipodi:namedview
     id="base"
     pagecolor="#ffffff"
     bordercolor="#666666"
     borderopacity="0.12156863"
     gridtolerance="10000"
     guidetolerance="10"
     objecttolerance="10"
     inkscape:pageopacity="0"
     inkscape:pageshadow="2"
     inkscape:zoom="1"
     inkscape:cx="5.7796992"
     inkscape:cy="3.3055697"
     inkscape:document-units="px"
     inkscape:current-layer="layer1"
     showgrid="true"
     showborder="true"
     inkscape:showpageshadow="false"
     inkscape:window-width="1360"
     inkscape:window-height="1016"
     inkscape:window-x="0"
     inkscape:window-y="0"
     inkscape:snap-intersection-line-segments="false"
     inkscape:snap-intersection-grid-guide="true"
     inkscape:snap-nodes="true"
     inkscape:snap-bbox="true">
    <inkscape:grid
       type="xygrid"
       id="grid2453"
       visible="true"
       enabled="true"
       color="#7f7f7f"
       opacity="0.07843137"
       empcolor="#ed2c1e"
       empopacity="0.12941176"
       empspacing="16" />
  </sodipodi:namedview>
  <metadata
     id="metadata7">
    <rdf:RDF>
      <cc:Work
         rdf:about="">
        <dc:format>image/svg+xml</dc:format>
        <dc:type
           rdf:resource="http://purl.org/dc/dcmitype/StillImage" />
      </cc:Work>
    </rdf:RDF>
  </metadata>
  <g
     inkscape:label="Layer 1"
     inkscape:groupmode="layer"
     id="layer1"
     transform="translate(-122,-466.36218)">
    <path
       style="opacity:1;fill:#222222;fill-opacity:1;stroke:none;stroke-width:1;stroke-linecap:round;stroke-linejoin:round;stroke-miterlimit:4;stroke-dasharray:none;stroke-opacity:0.68472906"
       d="M 1,3 L 1,8 L 2,9 L 4,9 L 4,13 L 5,14 L 10,14 L 11,13 L 11,9 L 12,9 L 14,7 L 14,3 L 1,3 z"
       id="path3172"
       transform="translate(122,466.36218)" />
    <path
       style="opacity:1;fill:#222222;fill-opacity:1;stroke:none;stroke-width:3;stroke-linecap:round;stroke-linejoin:bevel;stroke-miterlimit:4;stroke-dasharray:none;stroke-opacity:1"
       d="M 3 0 L 0 3 L 0 8 L 2 10 L 3 10 L 3 13 L 5 15 L 10 15 L 12 13 L 12 10 L 13 10 L 15 8 L 15 3 L 12 0 L 3 0 z M 2 4 L 3 4 L 6 7 L 6 8 L 3 8 L 2 7 L 2 4 z M 12 4 L 13 4 L 13 7 L 12 8 L 9 8 L 9 7 L 12 4 z M 5 10 L 6 10 L 6 13 L 5 13 L 5 10 z M 7 10 L 8 10 L 8 13 L 7 13 L 7 10 z M 9 10 L 10 10 L 10 13 L 9 13 L 9 10 z "
       transform="translate(122,466.36218)"
       id="path3292" />
    <path
       id="path3153"
       d="M 125.6,467.36218 L 123,469.96218 L 123,473.64218 L 124.73333,475.36218 L 126,475.36218 L 126,479.03218 L 127.33333,480.36218 L 131.66667,480.36218 L 133,479.03218 L 133,475.36218 L 134.26667,475.36218 L 136,473.64218 L 136,469.96218 L 133.4,467.36218 L 125.6,467.36218 z M 124,470.36218 L 126,470.36218 L 128,472.36218 L 128,474.36218 L 126,474.36218 L 124,472.36218 L 124,470.36218 z M 133,470.36218 L 135,470.36218 L 135,472.36218 L 133,474.36218 L 131,474.36218 L 131,472.36218 L 133,470.36218 z M 127,475.36218 L 128,475.36218 L 128,479.36218 L 127,478.36218 L 127,475.36218 z M 129,475.36218 L 130,475.36218 L 130,479.36218 L 129,479.36218 L 129,475.36218 z M 131,475.36218 L 132,475.36218 L 132,478.36218 L 131,479.36218 L 131,475.36218 z"
       style="opacity:1;fill:#ffffff;fill-opacity:1;stroke:none;stroke-width:3;stroke-linecap:round;stroke-linejoin:bevel;stroke-miterlimit:4;stroke-dasharray:none;stroke-opacity:1"
       sodipodi:nodetypes="cccccccccccccccccccccccccccccccccccccccccccc" />
  </g>
</svg>
