<?xml version="1.0" encoding="UTF-8" standalone="no"?>
<!-- Created with Inkscape (http://www.inkscape.org/) -->
<svg
   xmlns:dc="http://purl.org/dc/elements/1.1/"
   xmlns:cc="http://creativecommons.org/ns#"
   xmlns:rdf="http://www.w3.org/1999/02/22-rdf-syntax-ns#"
   xmlns:svg="http://www.w3.org/2000/svg"
   xmlns="http://www.w3.org/2000/svg"
   xmlns:sodipodi="http://sodipodi.sourceforge.net/DTD/sodipodi-0.dtd"
   xmlns:inkscape="http://www.inkscape.org/namespaces/inkscape"
   width="15"
   height="15"
   id="svg2"
   sodipodi:version="0.32"
   inkscape:version="0.46"
   version="1.0"
   sodipodi:docname="modern-15-cat_white.svg"
   inkscape:output_extension="org.inkscape.output.svg.inkscape">
  <defs
     id="defs4">
    <inkscape:perspective
       sodipodi:type="inkscape:persp3d"
       inkscape:vp_x="0 : 526.18109 : 1"
       inkscape:vp_y="0 : 1000 : 0"
       inkscape:vp_z="744.09448 : 526.18109 : 1"
       inkscape:persp3d-origin="372.04724 : 350.78739 : 1"
       id="perspective10" />
    <inkscape:perspective
       sodipodi:type="inkscape:persp3d"
       inkscape:vp_x="0 : 526.18109 : 1"
       inkscape:vp_y="0 : 1000 : 0"
       inkscape:vp_z="744.09448 : 526.18109 : 1"
       inkscape:persp3d-origin="372.04724 : 350.78739 : 1"
       id="perspective2507" />
    <inkscape:perspective
       sodipodi:type="inkscape:persp3d"
       inkscape:vp_x="0 : 526.18109 : 1"
       inkscape:vp_y="0 : 1000 : 0"
       inkscape:vp_z="744.09448 : 526.18109 : 1"
       inkscape:persp3d-origin="372.04724 : 350.78739 : 1"
       id="perspective2447" />
    <inkscape:perspective
       id="perspective2519"
       inkscape:persp3d-origin="372.04724 : 350.78739 : 1"
       inkscape:vp_z="744.09448 : 526.18109 : 1"
       inkscape:vp_y="0 : 1000 : 0"
       inkscape:vp_x="0 : 526.18109 : 1"
       sodipodi:type="inkscape:persp3d" />
  </defs>
  <sodipodi:namedview
     id="base"
     pagecolor="#ffffff"
     bordercolor="#666666"
     borderopacity="0.09803922"
     gridtolerance="10000"
     guidetolerance="10"
     objecttolerance="10"
     inkscape:pageopacity="0.0"
     inkscape:pageshadow="2"
     inkscape:zoom="1"
     inkscape:cx="7.3645575"
     inkscape:cy="8.1407114"
     inkscape:document-units="px"
     inkscape:current-layer="g2779"
     showgrid="true"
     inkscape:showpageshadow="false"
     inkscape:snap-bbox="true"
     inkscape:snap-nodes="false"
     inkscape:window-width="1009"
     inkscape:window-height="634"
     inkscape:window-x="0"
     inkscape:window-y="0">
    <inkscape:grid
       type="xygrid"
       id="grid2801"
       visible="true"
       enabled="true" />
  </sodipodi:namedview>
  <metadata
     id="metadata7">
    <rdf:RDF>
      <cc:Work
         rdf:about="">
        <dc:format>image/svg+xml</dc:format>
        <dc:type
           rdf:resource="http://purl.org/dc/dcmitype/StillImage" />
      </cc:Work>
    </rdf:RDF>
  </metadata>
  <g
     inkscape:label="Layer 1"
     inkscape:groupmode="layer"
     id="layer1">
    <flowRoot
       xml:space="preserve"
       id="flowRoot2453"
       style="font-size:16px;font-style:normal;font-variant:normal;font-weight:normal;font-stretch:normal;text-align:center;line-height:100%;writing-mode:lr-tb;text-anchor:middle;fill:#738063;fill-opacity:1;stroke:none;stroke-width:10;stroke-linecap:round;stroke-linejoin:round;stroke-miterlimit:4;stroke-dasharray:none;stroke-opacity:0.61860465;font-family:Standard Symbols L;-inkscape-font-specification:Standard Symbols L"
       transform="translate(-114.21111,73.0038)"><flowRegion
         id="flowRegion2455"><rect
           id="rect2457"
           width="399"
           height="298"
           x="37"
           y="351.36218" /></flowRegion><flowPara
         id="flowPara2459" /></flowRoot>    <g
       id="g2779"
       transform="matrix(0.1229508,0,0,0.1229508,-227.69968,218.55648)">
      <g
         id="g2839">
        <g
           id="g2829">
          <path
             sodipodi:nodetypes="czcc"
             id="path3297"
             d="M 1852.9818,-1717.593 C 1852.9818,-1717.593 1848.8854,-1777.593 1857.0783,-1777.593 C 1865.2712,-1777.593 1900.091,-1757.593 1900.091,-1757.593 L 1852.9818,-1717.593 z"
             style="fill:#2c2c2c;fill-opacity:1;stroke:none;stroke-width:10;stroke-linecap:round;stroke-linejoin:round;stroke-miterlimit:4;stroke-dasharray:none;stroke-opacity:0.61860464999999998" />
          <path
             style="fill:#ff7676;fill-opacity:1;stroke:none;stroke-width:10;stroke-linecap:round;stroke-linejoin:round;stroke-miterlimit:4;stroke-dasharray:none;stroke-opacity:0.61860465"
             d="M 1857.0852,-1708.4596 C 1857.0852,-1708.4596 1854.6982,-1773.5263 1857.0852,-1773.5263 C 1859.4722,-1773.5263 1904.8243,-1752.612 1904.8243,-1752.612 L 1857.0852,-1708.4596 z"
             id="path3303"
             sodipodi:nodetypes="czcc" />
        </g>
        <g
           transform="matrix(-1,0,0,1,3825.9154,1.1585122e-5)"
           id="g2833">
          <path
             style="fill:#2c2c2c;fill-opacity:1;stroke:none;stroke-width:10;stroke-linecap:round;stroke-linejoin:round;stroke-miterlimit:4;stroke-dasharray:none;stroke-opacity:0.61860464999999998"
             d="M 1852.9818,-1717.593 C 1852.9818,-1717.593 1848.8854,-1777.593 1857.0783,-1777.593 C 1865.2712,-1777.593 1900.091,-1757.593 1900.091,-1757.593 L 1852.9818,-1717.593 z"
             id="path2835"
             sodipodi:nodetypes="czcc" />
          <path
             sodipodi:nodetypes="czcc"
             id="path2837"
             d="M 1857.0852,-1708.4596 C 1857.0852,-1708.4596 1854.6982,-1773.5263 1857.0852,-1773.5263 C 1859.4722,-1773.5263 1904.8243,-1752.612 1904.8243,-1752.612 L 1857.0852,-1708.4596 z"
             style="fill:#ff7676;fill-opacity:1;stroke:none;stroke-width:10;stroke-linecap:round;stroke-linejoin:round;stroke-miterlimit:4;stroke-dasharray:none;stroke-opacity:0.61860465" />
        </g>
      </g>
      <path
         transform="matrix(1,0,0,0.9180328,1849.9577,-1729.0356)"
         d="M 124,19 A 61,61 0 1 1 2,19 A 61,61 0 1 1 124,19 z"
         sodipodi:ry="61"
         sodipodi:rx="61"
         sodipodi:cy="19"
         sodipodi:cx="63"
         id="path2519"
         style="fill:#2c2c2c;fill-opacity:1;stroke:none;stroke-width:10;stroke-linecap:round;stroke-linejoin:round;stroke-miterlimit:4;stroke-dasharray:none;stroke-opacity:0.61860464999999998"
         sodipodi:type="arc" />
      <path
         sodipodi:type="arc"
         style="fill:#ffffff;fill-opacity:1;stroke:none;stroke-width:10;stroke-linecap:round;stroke-linejoin:round;stroke-miterlimit:4;stroke-dasharray:none;stroke-opacity:0.61860465"
         id="path3291"
         sodipodi:cx="63"
         sodipodi:cy="19"
         sodipodi:rx="61"
         sodipodi:ry="61"
         d="M 124,19 A 61,61 0 1 1 2,19 A 61,61 0 1 1 124,19 z"
         transform="matrix(0.9333335,0,0,0.8666668,1854.1577,-1728.993)" />
      <g
         transform="matrix(1.5249975,0,0,1.524998,1831.6245,-1810.1262)"
         id="g3311">
        <path
           sodipodi:type="arc"
           style="opacity:1;fill:#2c2c2c;fill-opacity:1;stroke:none;stroke-width:10;stroke-linecap:round;stroke-linejoin:round;stroke-miterlimit:4;stroke-dasharray:none;stroke-opacity:0.61860464999999998"
           id="path3293"
           sodipodi:cx="34"
           sodipodi:cy="58"
           sodipodi:rx="8"
           sodipodi:ry="8"
           d="M 42,58 A 8,8 0 1 1 26,58 A 8,8 0 1 1 42,58 z"
           transform="translate(-2,-2)" />
        <path
           transform="matrix(0.6666679,0,0,0.6666676,9.3332555,17.333279)"
           d="M 42,58 A 8,8 0 1 1 26,58 A 8,8 0 1 1 42,58 z"
           sodipodi:ry="8"
           sodipodi:rx="8"
           sodipodi:cy="58"
           sodipodi:cx="34"
           id="path3295"
           style="opacity:1;fill:#ffffff;fill-opacity:1;stroke:none;stroke-width:10;stroke-linecap:round;stroke-linejoin:round;stroke-miterlimit:4;stroke-dasharray:none;stroke-opacity:0.61860465"
           sodipodi:type="arc" />
      </g>
      <path
         sodipodi:nodetypes="czcc"
         id="path3317"
         d="M 1892.6244,-1704.393 C 1892.6244,-1684.3724 1897.1428,-1671.8596 1912.9577,-1671.8596 C 1928.7725,-1671.8596 1933.291,-1684.3724 1933.291,-1704.393 L 1892.6244,-1704.393 z"
         style="fill:#2f2f2f;fill-opacity:1;stroke:none;stroke-width:10;stroke-linecap:round;stroke-linejoin:round;stroke-miterlimit:4;stroke-dasharray:none;stroke-opacity:0.61860464999999998" />
      <path
         style="fill:#ff54d8;fill-opacity:1;stroke:none;stroke-width:10;stroke-linecap:round;stroke-linejoin:round;stroke-miterlimit:4;stroke-dasharray:none;stroke-opacity:0.61860464999999998"
         d="M 1896.691,-1700.3263 C 1896.691,-1684.799 1900.7577,-1675.9263 1912.9577,-1675.9263 C 1925.1577,-1675.9263 1929.2243,-1684.799 1929.2243,-1700.3263 L 1896.691,-1700.3263 z"
         id="path3324"
         sodipodi:nodetypes="czcc" />
      <g
         id="g2405"
         transform="matrix(1.5249975,0,0,1.524998,1896.6911,-1810.1262)">
        <path
           transform="translate(-2,-2)"
           d="M 42,58 A 8,8 0 1 1 26,58 A 8,8 0 1 1 42,58 z"
           sodipodi:ry="8"
           sodipodi:rx="8"
           sodipodi:cy="58"
           sodipodi:cx="34"
           id="path2407"
           style="opacity:1;fill:#2c2c2c;fill-opacity:1;stroke:none;stroke-width:10;stroke-linecap:round;stroke-linejoin:round;stroke-miterlimit:4;stroke-dasharray:none;stroke-opacity:0.61860465"
           sodipodi:type="arc" />
        <path
           sodipodi:type="arc"
           style="opacity:1;fill:#ffffff;fill-opacity:1;stroke:none;stroke-width:10;stroke-linecap:round;stroke-linejoin:round;stroke-miterlimit:4;stroke-dasharray:none;stroke-opacity:0.61860465"
           id="path2409"
           sodipodi:cx="34"
           sodipodi:cy="58"
           sodipodi:rx="8"
           sodipodi:ry="8"
           d="M 42,58 A 8,8 0 1 1 26,58 A 8,8 0 1 1 42,58 z"
           transform="matrix(0.6666679,0,0,0.6666676,9.3332555,17.333279)" />
      </g>
    </g>
  </g>
</svg>
