<?xml version="1.0" encoding="UTF-8" standalone="no"?>
<!-- Created with Inkscape (http://www.inkscape.org/) -->

<svg
   xmlns:dc="http://purl.org/dc/elements/1.1/"
   xmlns:cc="http://creativecommons.org/ns#"
   xmlns:rdf="http://www.w3.org/1999/02/22-rdf-syntax-ns#"
   xmlns:svg="http://www.w3.org/2000/svg"
   xmlns="http://www.w3.org/2000/svg"
   xmlns:sodipodi="http://sodipodi.sourceforge.net/DTD/sodipodi-0.dtd"
   xmlns:inkscape="http://www.inkscape.org/namespaces/inkscape"
   width="15"
   height="15"
   id="svg2"
   version="1.1"
   inkscape:version="0.48.1 "
   sodipodi:docname="New document 1">
  <defs
     id="defs4" />
  <sodipodi:namedview
     id="base"
     pagecolor="#ffffff"
     bordercolor="#666666"
     borderopacity="1.0"
     inkscape:pageopacity="0.0"
     inkscape:pageshadow="2"
     inkscape:zoom="1"
     inkscape:cx="4.9113808"
     inkscape:cy="7.9483966"
     inkscape:document-units="px"
     inkscape:current-layer="layer1"
     showgrid="false"
     inkscape:showpageshadow="false"
     showborder="false"
     inkscape:window-width="881"
     inkscape:window-height="378"
     inkscape:window-x="106"
     inkscape:window-y="22"
     inkscape:window-maximized="0">
    <inkscape:grid
       type="xygrid"
       id="grid2985"
       empspacing="5"
       visible="true"
       enabled="true"
       snapvisiblegridlinesonly="true"
       color="#d9ff00"
       opacity="0.1254902"
       empcolor="#ff6a00"
       empopacity="0.25098039" />
  </sodipodi:namedview>
  <metadata
     id="metadata7">
    <rdf:RDF>
      <cc:Work
         rdf:about="">
        <dc:format>image/svg+xml</dc:format>
        <dc:type
           rdf:resource="http://purl.org/dc/dcmitype/StillImage" />
        <dc:title></dc:title>
      </cc:Work>
    </rdf:RDF>
  </metadata>
  <g
     inkscape:label="Layer 1"
     inkscape:groupmode="layer"
     id="layer1"
     transform="translate(0,-1037.3622)">
    <path
       sodipodi:type="arc"
       style="fill:#000000;fill-opacity:1;stroke:none"
       id="path3807"
       sodipodi:cx="7.5"
       sodipodi:cy="7.5"
       sodipodi:rx="7.5"
       sodipodi:ry="7.5"
       d="m 15,7.5 a 7.5,7.5 0 1 1 -15,0 7.5,7.5 0 1 1 15,0 z"
       transform="translate(0,1037.3622)" />
    <path
       sodipodi:type="arc"
       style="fill:#ffffff;fill-opacity:1;stroke:none"
       id="path3820"
       sodipodi:cx="7.5"
       sodipodi:cy="7.5"
       sodipodi:rx="6.5"
       sodipodi:ry="6.5"
       d="m 14,7.5 a 6.5,6.5 0 1 1 -13,0 6.5,6.5 0 1 1 13,0 z"
       transform="translate(0,1037.3622)" />
    <path
       sodipodi:type="arc"
       style="fill:#000000;fill-opacity:1;stroke:none"
       id="path3760"
       sodipodi:cx="7.5"
       sodipodi:cy="7.5"
       sodipodi:rx="1.5"
       sodipodi:ry="1.5"
       d="m 9,7.5 a 1.5,1.5 0 1 1 -3,0 1.5,1.5 0 1 1 3,0 z"
       transform="translate(0,1037.3622)" />
    <path
       style="fill:#000000;fill-opacity:1;stroke:none"
       d="M 7.5 2 C 6.5096383 2 5.5839275 2.2606432 4.78125 2.71875 L 6.28125 5.3125 C 6.640825 5.1122788 7.0592343 5 7.5 5 C 7.9407657 5 8.359175 5.1122788 8.71875 5.3125 L 10.21875 2.71875 C 9.4160725 2.2606432 8.4903617 2 7.5 2 z M 2 7.40625 C 1.999471 7.4376678 2 7.468456 2 7.5 C 2 9.5218457 3.0933836 11.294324 4.71875 12.25 L 6.21875 9.625 C 5.490964 9.1879499 5 8.4107388 5 7.5 C 5 7.4681374 4.9988184 7.4378236 5 7.40625 L 2 7.40625 z M 10 7.40625 C 10.001182 7.4378236 10 7.4681374 10 7.5 C 10 8.4107388 9.509036 9.1879499 8.78125 9.625 L 10.28125 12.25 C 11.906616 11.294324 13 9.5218457 13 7.5 C 13 7.468456 13.000529 7.4376678 13 7.40625 L 10 7.40625 z "
       transform="translate(0,1037.3622)"
       id="path3766" />
  </g>
</svg>
